<svg id="Layer_1" data-name="Layer 1" xmlns="http://www.w3.org/2000/svg" xmlns:xlink="http://www.w3.org/1999/xlink" viewBox="0 0 525 482.5"><defs><style>.cls-1{fill:url(#linear-gradient);}.cls-2{fill:url(#linear-gradient-2);}.cls-3{fill:url(#linear-gradient-3);}.cls-4{fill:url(#linear-gradient-4);}.cls-5{fill:url(#linear-gradient-5);}.cls-6{fill:url(#linear-gradient-6);}.cls-7{fill:url(#linear-gradient-7);}.cls-8{fill:url(#linear-gradient-8);}.cls-9{fill:url(#linear-gradient-9);}.cls-10{fill:url(#linear-gradient-10);}.cls-11{fill:url(#linear-gradient-11);}.cls-12{fill:url(#linear-gradient-12);}.cls-13{fill:url(#linear-gradient-13);}.cls-14{fill:url(#linear-gradient-14);}.cls-15{fill:url(#linear-gradient-15);}.cls-16{fill:url(#linear-gradient-16);}.cls-17{fill:url(#linear-gradient-17);}.cls-18{fill:url(#linear-gradient-18);}.cls-19{fill:url(#linear-gradient-19);}.cls-20{fill:url(#linear-gradient-20);}.cls-21{fill:url(#linear-gradient-21);}.cls-22{fill:url(#linear-gradient-22);}.cls-23{fill:url(#linear-gradient-23);}.cls-24{fill:url(#linear-gradient-24);}.cls-25{fill:url(#linear-gradient-25);}.cls-26{fill:url(#linear-gradient-26);}.cls-27{fill:url(#linear-gradient-27);}.cls-28{fill:url(#linear-gradient-28);}.cls-29{fill:url(#linear-gradient-29);}.cls-30{fill:url(#linear-gradient-30);}.cls-31{fill:url(#linear-gradient-31);}.cls-32{fill:url(#linear-gradient-32);}.cls-33{fill:url(#linear-gradient-33);}.cls-34{fill:url(#linear-gradient-34);}.cls-35{fill:url(#linear-gradient-35);}.cls-36{fill:url(#linear-gradient-36);}.cls-37{fill:url(#linear-gradient-37);}.cls-38{fill:url(#linear-gradient-38);}.cls-39{fill:url(#linear-gradient-39);}.cls-40{fill:url(#linear-gradient-40);}.cls-41{fill:url(#linear-gradient-41);}.cls-42{fill:url(#linear-gradient-42);}.cls-43{fill:url(#linear-gradient-43);}.cls-44{fill:url(#linear-gradient-44);}.cls-45{fill:url(#linear-gradient-45);}.cls-46{fill:url(#linear-gradient-46);}.cls-47{fill:url(#linear-gradient-47);}.cls-48{fill:url(#linear-gradient-48);}.cls-49{fill:url(#linear-gradient-49);}.cls-50{fill:url(#linear-gradient-50);}.cls-51{fill:url(#linear-gradient-51);}.cls-52{fill:url(#linear-gradient-52);}.cls-53{fill:url(#linear-gradient-53);}.cls-54{fill:url(#linear-gradient-54);}.cls-55{fill:url(#linear-gradient-55);}.cls-56{fill:url(#linear-gradient-56);}.cls-57{fill:url(#linear-gradient-57);}.cls-58{fill:url(#linear-gradient-58);}.cls-59{fill:url(#linear-gradient-59);}.cls-60{fill:url(#linear-gradient-60);}.cls-61{fill:url(#linear-gradient-61);}.cls-62{fill:url(#linear-gradient-62);}.cls-63{fill:url(#linear-gradient-63);}.cls-64{fill:url(#linear-gradient-64);}.cls-65{fill:url(#linear-gradient-65);}.cls-66{fill:url(#linear-gradient-66);}.cls-67{fill:url(#linear-gradient-67);}.cls-68{fill:url(#linear-gradient-68);}.cls-69{fill:url(#linear-gradient-69);}.cls-70{fill:url(#linear-gradient-70);}.cls-71{fill:url(#linear-gradient-71);}.cls-72{fill:url(#linear-gradient-72);}.cls-73{fill:url(#linear-gradient-73);}.cls-74{fill:url(#linear-gradient-74);}.cls-75{fill:url(#linear-gradient-75);}.cls-76{fill:url(#linear-gradient-76);}.cls-77{fill:url(#linear-gradient-77);}.cls-78{fill:url(#linear-gradient-78);}.cls-79{fill:url(#linear-gradient-79);}.cls-80{fill:url(#linear-gradient-80);}.cls-81{fill:url(#linear-gradient-81);}.cls-82{fill:url(#linear-gradient-82);}.cls-83{fill:url(#linear-gradient-83);}.cls-84{fill:url(#linear-gradient-84);}.cls-85{fill:url(#linear-gradient-85);}.cls-86{fill:url(#linear-gradient-86);}.cls-87{fill:url(#linear-gradient-87);}.cls-88{fill:url(#linear-gradient-88);}.cls-89{fill:url(#linear-gradient-89);}.cls-90{fill:url(#linear-gradient-90);}.cls-91{fill:url(#linear-gradient-91);}.cls-92{fill:url(#linear-gradient-92);}.cls-93{fill:url(#linear-gradient-93);}.cls-94{fill:url(#linear-gradient-94);}.cls-95{fill:url(#linear-gradient-95);}.cls-96{fill:url(#linear-gradient-96);}.cls-97{fill:url(#linear-gradient-97);}.cls-98{fill:url(#linear-gradient-98);}.cls-99{fill:url(#linear-gradient-99);}.cls-100{fill:url(#linear-gradient-100);}.cls-101{fill:url(#linear-gradient-101);}.cls-102{fill:url(#linear-gradient-102);}.cls-103{fill:url(#linear-gradient-103);}.cls-104{fill:url(#linear-gradient-104);}.cls-105{fill:url(#linear-gradient-105);}.cls-106{fill:url(#linear-gradient-106);}.cls-107{fill:url(#linear-gradient-107);}.cls-108{fill:url(#linear-gradient-108);}.cls-109{fill:url(#linear-gradient-109);}.cls-110{fill:url(#linear-gradient-110);}</style><linearGradient id="linear-gradient" x1="5.31" y1="48.44" x2="44.69" y2="9.06" gradientUnits="userSpaceOnUse"><stop offset="0" stop-color="#fefefe"/><stop offset="1" stop-color="#e4e4e6"/></linearGradient><linearGradient id="linear-gradient-2" x1="55.31" y1="48.44" x2="94.69" y2="9.06" xlink:href="#linear-gradient"/><linearGradient id="linear-gradient-3" x1="105.31" y1="48.44" x2="144.69" y2="9.06" xlink:href="#linear-gradient"/><linearGradient id="linear-gradient-4" x1="155.31" y1="48.44" x2="194.69" y2="9.06" xlink:href="#linear-gradient"/><linearGradient id="linear-gradient-5" x1="30.31" y1="90.94" x2="69.69" y2="51.56" xlink:href="#linear-gradient"/><linearGradient id="linear-gradient-6" x1="80.31" y1="90.94" x2="119.69" y2="51.56" xlink:href="#linear-gradient"/><linearGradient id="linear-gradient-7" x1="130.31" y1="90.94" x2="169.69" y2="51.56" xlink:href="#linear-gradient"/><linearGradient id="linear-gradient-8" x1="180.31" y1="90.94" x2="219.69" y2="51.56" xlink:href="#linear-gradient"/><linearGradient id="linear-gradient-9" x1="205.31" y1="48.44" x2="244.69" y2="9.06" xlink:href="#linear-gradient"/><linearGradient id="linear-gradient-10" x1="255.31" y1="48.44" x2="294.69" y2="9.06" xlink:href="#linear-gradient"/><linearGradient id="linear-gradient-11" x1="305.31" y1="48.44" x2="344.69" y2="9.06" xlink:href="#linear-gradient"/><linearGradient id="linear-gradient-12" x1="355.31" y1="48.44" x2="394.69" y2="9.06" xlink:href="#linear-gradient"/><linearGradient id="linear-gradient-13" x1="230.31" y1="90.94" x2="269.69" y2="51.56" xlink:href="#linear-gradient"/><linearGradient id="linear-gradient-14" x1="280.31" y1="90.94" x2="319.69" y2="51.56" xlink:href="#linear-gradient"/><linearGradient id="linear-gradient-15" x1="330.31" y1="90.94" x2="369.69" y2="51.56" xlink:href="#linear-gradient"/><linearGradient id="linear-gradient-16" x1="380.31" y1="90.94" x2="419.69" y2="51.56" xlink:href="#linear-gradient"/><linearGradient id="linear-gradient-17" x1="405.31" y1="48.44" x2="444.69" y2="9.06" xlink:href="#linear-gradient"/><linearGradient id="linear-gradient-18" x1="455.31" y1="48.44" x2="494.69" y2="9.06" xlink:href="#linear-gradient"/><linearGradient id="linear-gradient-19" x1="430.31" y1="90.94" x2="469.69" y2="51.56" xlink:href="#linear-gradient"/><linearGradient id="linear-gradient-20" x1="480.31" y1="90.94" x2="519.69" y2="51.56" xlink:href="#linear-gradient"/><linearGradient id="linear-gradient-21" x1="5.31" y1="133.44" x2="44.69" y2="94.06" xlink:href="#linear-gradient"/><linearGradient id="linear-gradient-22" x1="55.31" y1="133.44" x2="94.69" y2="94.06" xlink:href="#linear-gradient"/><linearGradient id="linear-gradient-23" x1="105.31" y1="133.44" x2="144.69" y2="94.06" xlink:href="#linear-gradient"/><linearGradient id="linear-gradient-24" x1="155.31" y1="133.44" x2="194.69" y2="94.06" xlink:href="#linear-gradient"/><linearGradient id="linear-gradient-25" x1="30.31" y1="175.94" x2="69.69" y2="136.56" xlink:href="#linear-gradient"/><linearGradient id="linear-gradient-26" x1="80.31" y1="175.94" x2="119.69" y2="136.56" xlink:href="#linear-gradient"/><linearGradient id="linear-gradient-27" x1="130.31" y1="175.94" x2="169.69" y2="136.56" xlink:href="#linear-gradient"/><linearGradient id="linear-gradient-28" x1="180.31" y1="175.94" x2="219.69" y2="136.56" xlink:href="#linear-gradient"/><linearGradient id="linear-gradient-29" x1="205.31" y1="133.44" x2="244.69" y2="94.06" xlink:href="#linear-gradient"/><linearGradient id="linear-gradient-30" x1="255.31" y1="133.44" x2="294.69" y2="94.06" xlink:href="#linear-gradient"/><linearGradient id="linear-gradient-31" x1="305.31" y1="133.44" x2="344.69" y2="94.06" xlink:href="#linear-gradient"/><linearGradient id="linear-gradient-32" x1="355.31" y1="133.44" x2="394.69" y2="94.06" xlink:href="#linear-gradient"/><linearGradient id="linear-gradient-33" x1="230.31" y1="175.94" x2="269.69" y2="136.56" xlink:href="#linear-gradient"/><linearGradient id="linear-gradient-34" x1="280.31" y1="175.94" x2="319.69" y2="136.56" xlink:href="#linear-gradient"/><linearGradient id="linear-gradient-35" x1="330.31" y1="175.94" x2="369.69" y2="136.56" xlink:href="#linear-gradient"/><linearGradient id="linear-gradient-36" x1="380.31" y1="175.94" x2="419.69" y2="136.56" xlink:href="#linear-gradient"/><linearGradient id="linear-gradient-37" x1="405.31" y1="133.44" x2="444.69" y2="94.06" xlink:href="#linear-gradient"/><linearGradient id="linear-gradient-38" x1="455.31" y1="133.44" x2="494.69" y2="94.06" xlink:href="#linear-gradient"/><linearGradient id="linear-gradient-39" x1="430.31" y1="175.94" x2="469.69" y2="136.56" xlink:href="#linear-gradient"/><linearGradient id="linear-gradient-40" x1="480.31" y1="175.94" x2="519.69" y2="136.56" xlink:href="#linear-gradient"/><linearGradient id="linear-gradient-41" x1="5.31" y1="218.44" x2="44.69" y2="179.06" xlink:href="#linear-gradient"/><linearGradient id="linear-gradient-42" x1="55.31" y1="218.44" x2="94.69" y2="179.06" xlink:href="#linear-gradient"/><linearGradient id="linear-gradient-43" x1="105.31" y1="218.44" x2="144.69" y2="179.06" xlink:href="#linear-gradient"/><linearGradient id="linear-gradient-44" x1="155.31" y1="218.44" x2="194.69" y2="179.06" xlink:href="#linear-gradient"/><linearGradient id="linear-gradient-45" x1="30.31" y1="260.94" x2="69.69" y2="221.56" xlink:href="#linear-gradient"/><linearGradient id="linear-gradient-46" x1="80.31" y1="260.94" x2="119.69" y2="221.56" xlink:href="#linear-gradient"/><linearGradient id="linear-gradient-47" x1="130.31" y1="260.94" x2="169.69" y2="221.56" xlink:href="#linear-gradient"/><linearGradient id="linear-gradient-48" x1="180.31" y1="260.94" x2="219.69" y2="221.56" xlink:href="#linear-gradient"/><linearGradient id="linear-gradient-49" x1="205.31" y1="218.44" x2="244.69" y2="179.06" xlink:href="#linear-gradient"/><linearGradient id="linear-gradient-50" x1="255.31" y1="218.44" x2="294.69" y2="179.06" xlink:href="#linear-gradient"/><linearGradient id="linear-gradient-51" x1="305.31" y1="218.44" x2="344.69" y2="179.06" xlink:href="#linear-gradient"/><linearGradient id="linear-gradient-52" x1="355.31" y1="218.44" x2="394.69" y2="179.06" xlink:href="#linear-gradient"/><linearGradient id="linear-gradient-53" x1="230.31" y1="260.94" x2="269.69" y2="221.56" xlink:href="#linear-gradient"/><linearGradient id="linear-gradient-54" x1="280.31" y1="260.94" x2="319.69" y2="221.56" xlink:href="#linear-gradient"/><linearGradient id="linear-gradient-55" x1="330.31" y1="260.94" x2="369.69" y2="221.56" xlink:href="#linear-gradient"/><linearGradient id="linear-gradient-56" x1="380.31" y1="260.94" x2="419.69" y2="221.56" xlink:href="#linear-gradient"/><linearGradient id="linear-gradient-57" x1="405.31" y1="218.44" x2="444.69" y2="179.06" xlink:href="#linear-gradient"/><linearGradient id="linear-gradient-58" x1="455.31" y1="218.44" x2="494.69" y2="179.06" xlink:href="#linear-gradient"/><linearGradient id="linear-gradient-59" x1="430.31" y1="260.94" x2="469.69" y2="221.56" xlink:href="#linear-gradient"/><linearGradient id="linear-gradient-60" x1="480.31" y1="260.94" x2="519.69" y2="221.56" xlink:href="#linear-gradient"/><linearGradient id="linear-gradient-61" x1="5.31" y1="303.44" x2="44.69" y2="264.06" xlink:href="#linear-gradient"/><linearGradient id="linear-gradient-62" x1="55.31" y1="303.44" x2="94.69" y2="264.06" xlink:href="#linear-gradient"/><linearGradient id="linear-gradient-63" x1="105.31" y1="303.44" x2="144.69" y2="264.06" xlink:href="#linear-gradient"/><linearGradient id="linear-gradient-64" x1="155.31" y1="303.44" x2="194.69" y2="264.06" xlink:href="#linear-gradient"/><linearGradient id="linear-gradient-65" x1="30.31" y1="345.94" x2="69.69" y2="306.56" xlink:href="#linear-gradient"/><linearGradient id="linear-gradient-66" x1="80.31" y1="345.94" x2="119.69" y2="306.56" xlink:href="#linear-gradient"/><linearGradient id="linear-gradient-67" x1="130.31" y1="345.94" x2="169.69" y2="306.56" xlink:href="#linear-gradient"/><linearGradient id="linear-gradient-68" x1="180.31" y1="345.94" x2="219.69" y2="306.56" xlink:href="#linear-gradient"/><linearGradient id="linear-gradient-69" x1="205.31" y1="303.44" x2="244.69" y2="264.06" xlink:href="#linear-gradient"/><linearGradient id="linear-gradient-70" x1="255.31" y1="303.44" x2="294.69" y2="264.06" xlink:href="#linear-gradient"/><linearGradient id="linear-gradient-71" x1="305.31" y1="303.44" x2="344.69" y2="264.06" xlink:href="#linear-gradient"/><linearGradient id="linear-gradient-72" x1="355.31" y1="303.44" x2="394.69" y2="264.06" xlink:href="#linear-gradient"/><linearGradient id="linear-gradient-73" x1="230.31" y1="345.94" x2="269.69" y2="306.56" xlink:href="#linear-gradient"/><linearGradient id="linear-gradient-74" x1="280.31" y1="345.94" x2="319.69" y2="306.56" xlink:href="#linear-gradient"/><linearGradient id="linear-gradient-75" x1="330.31" y1="345.94" x2="369.69" y2="306.56" xlink:href="#linear-gradient"/><linearGradient id="linear-gradient-76" x1="380.31" y1="345.94" x2="419.69" y2="306.56" xlink:href="#linear-gradient"/><linearGradient id="linear-gradient-77" x1="405.31" y1="303.44" x2="444.69" y2="264.06" xlink:href="#linear-gradient"/><linearGradient id="linear-gradient-78" x1="455.31" y1="303.44" x2="494.69" y2="264.06" xlink:href="#linear-gradient"/><linearGradient id="linear-gradient-79" x1="430.31" y1="345.94" x2="469.69" y2="306.56" xlink:href="#linear-gradient"/><linearGradient id="linear-gradient-80" x1="480.31" y1="345.94" x2="519.69" y2="306.56" xlink:href="#linear-gradient"/><linearGradient id="linear-gradient-81" x1="5.31" y1="388.44" x2="44.69" y2="349.06" xlink:href="#linear-gradient"/><linearGradient id="linear-gradient-82" x1="55.31" y1="388.44" x2="94.69" y2="349.06" xlink:href="#linear-gradient"/><linearGradient id="linear-gradient-83" x1="105.31" y1="388.44" x2="144.69" y2="349.06" xlink:href="#linear-gradient"/><linearGradient id="linear-gradient-84" x1="155.31" y1="388.44" x2="194.69" y2="349.06" xlink:href="#linear-gradient"/><linearGradient id="linear-gradient-85" x1="30.31" y1="430.94" x2="69.69" y2="391.56" xlink:href="#linear-gradient"/><linearGradient id="linear-gradient-86" x1="80.31" y1="430.94" x2="119.69" y2="391.56" xlink:href="#linear-gradient"/><linearGradient id="linear-gradient-87" x1="130.31" y1="430.94" x2="169.69" y2="391.56" xlink:href="#linear-gradient"/><linearGradient id="linear-gradient-88" x1="180.31" y1="430.94" x2="219.69" y2="391.56" xlink:href="#linear-gradient"/><linearGradient id="linear-gradient-89" x1="205.31" y1="388.44" x2="244.69" y2="349.06" xlink:href="#linear-gradient"/><linearGradient id="linear-gradient-90" x1="255.31" y1="388.44" x2="294.69" y2="349.06" xlink:href="#linear-gradient"/><linearGradient id="linear-gradient-91" x1="305.31" y1="388.44" x2="344.69" y2="349.06" xlink:href="#linear-gradient"/><linearGradient id="linear-gradient-92" x1="355.31" y1="388.44" x2="394.69" y2="349.06" xlink:href="#linear-gradient"/><linearGradient id="linear-gradient-93" x1="230.31" y1="430.94" x2="269.69" y2="391.56" xlink:href="#linear-gradient"/><linearGradient id="linear-gradient-94" x1="280.31" y1="430.94" x2="319.69" y2="391.56" xlink:href="#linear-gradient"/><linearGradient id="linear-gradient-95" x1="330.31" y1="430.94" x2="369.69" y2="391.56" xlink:href="#linear-gradient"/><linearGradient id="linear-gradient-96" x1="380.31" y1="430.94" x2="419.69" y2="391.56" xlink:href="#linear-gradient"/><linearGradient id="linear-gradient-97" x1="405.31" y1="388.44" x2="444.69" y2="349.06" xlink:href="#linear-gradient"/><linearGradient id="linear-gradient-98" x1="455.31" y1="388.44" x2="494.69" y2="349.06" xlink:href="#linear-gradient"/><linearGradient id="linear-gradient-99" x1="430.31" y1="430.94" x2="469.69" y2="391.56" xlink:href="#linear-gradient"/><linearGradient id="linear-gradient-100" x1="480.31" y1="430.94" x2="519.69" y2="391.56" xlink:href="#linear-gradient"/><linearGradient id="linear-gradient-101" x1="5.31" y1="473.44" x2="44.69" y2="434.06" xlink:href="#linear-gradient"/><linearGradient id="linear-gradient-102" x1="55.31" y1="473.44" x2="94.69" y2="434.06" xlink:href="#linear-gradient"/><linearGradient id="linear-gradient-103" x1="105.31" y1="473.44" x2="144.69" y2="434.06" xlink:href="#linear-gradient"/><linearGradient id="linear-gradient-104" x1="155.31" y1="473.44" x2="194.69" y2="434.06" xlink:href="#linear-gradient"/><linearGradient id="linear-gradient-105" x1="205.31" y1="473.44" x2="244.69" y2="434.06" xlink:href="#linear-gradient"/><linearGradient id="linear-gradient-106" x1="255.31" y1="473.44" x2="294.69" y2="434.06" xlink:href="#linear-gradient"/><linearGradient id="linear-gradient-107" x1="305.31" y1="473.44" x2="344.69" y2="434.06" xlink:href="#linear-gradient"/><linearGradient id="linear-gradient-108" x1="355.31" y1="473.44" x2="394.69" y2="434.06" xlink:href="#linear-gradient"/><linearGradient id="linear-gradient-109" x1="405.31" y1="473.44" x2="444.69" y2="434.06" xlink:href="#linear-gradient"/><linearGradient id="linear-gradient-110" x1="455.31" y1="473.44" x2="494.69" y2="434.06" xlink:href="#linear-gradient"/></defs><polygon class="cls-1" points="50 43.13 25 57.5 0 43.13 0 14.38 25 0 50 14.38 50 43.13"/><polygon class="cls-2" points="100 43.13 75 57.5 50 43.13 50 14.38 75 0 100 14.38 100 43.13"/><polygon class="cls-3" points="150 43.13 125 57.5 100 43.13 100 14.38 125 0 150 14.38 150 43.13"/><polygon class="cls-4" points="200 43.13 175 57.5 150 43.13 150 14.38 175 0 200 14.38 200 43.13"/><polygon class="cls-5" points="75 85.63 50 100 25 85.63 25 56.88 50 42.5 75 56.88 75 85.63"/><polygon class="cls-6" points="125 85.63 100 100 75 85.63 75 56.88 100 42.5 125 56.88 125 85.63"/><polygon class="cls-7" points="175 85.63 150 100 125 85.63 125 56.88 150 42.5 175 56.88 175 85.63"/><polygon class="cls-8" points="225 85.63 200 100 175 85.63 175 56.88 200 42.5 225 56.88 225 85.63"/><polygon class="cls-9" points="250 43.13 225 57.5 200 43.13 200 14.38 225 0 250 14.38 250 43.13"/><polygon class="cls-10" points="300 43.13 275 57.5 250 43.13 250 14.38 275 0 300 14.38 300 43.13"/><polygon class="cls-11" points="350 43.13 325 57.5 300 43.13 300 14.38 325 0 350 14.38 350 43.13"/><polygon class="cls-12" points="400 43.13 375 57.5 350 43.13 350 14.38 375 0 400 14.38 400 43.13"/><polygon class="cls-13" points="275 85.63 250 100 225 85.63 225 56.88 250 42.5 275 56.88 275 85.63"/><polygon class="cls-14" points="325 85.63 300 100 275 85.63 275 56.88 300 42.5 325 56.88 325 85.63"/><polygon class="cls-15" points="375 85.63 350 100 325 85.63 325 56.88 350 42.5 375 56.88 375 85.63"/><polygon class="cls-16" points="425 85.63 400 100 375 85.63 375 56.88 400 42.5 425 56.88 425 85.63"/><polygon class="cls-17" points="450 43.13 425 57.5 400 43.13 400 14.38 425 0 450 14.38 450 43.13"/><polygon class="cls-18" points="500 43.13 475 57.5 450 43.13 450 14.38 475 0 500 14.38 500 43.13"/><polygon class="cls-19" points="475 85.63 450 100 425 85.63 425 56.88 450 42.5 475 56.88 475 85.63"/><polygon class="cls-20" points="525 85.63 500 100 475 85.63 475 56.88 500 42.5 525 56.88 525 85.63"/><polygon class="cls-21" points="50 128.13 25 142.5 0 128.13 0 99.38 25 85 50 99.38 50 128.13"/><polygon class="cls-22" points="100 128.13 75 142.5 50 128.13 50 99.38 75 85 100 99.38 100 128.13"/><polygon class="cls-23" points="150 128.13 125 142.5 100 128.13 100 99.38 125 85 150 99.38 150 128.13"/><polygon class="cls-24" points="200 128.13 175 142.5 150 128.13 150 99.38 175 85 200 99.38 200 128.13"/><polygon class="cls-25" points="75 170.63 50 185 25 170.63 25 141.88 50 127.5 75 141.88 75 170.63"/><polygon class="cls-26" points="125 170.63 100 185 75 170.63 75 141.88 100 127.5 125 141.88 125 170.63"/><polygon class="cls-27" points="175 170.63 150 185 125 170.63 125 141.88 150 127.5 175 141.88 175 170.63"/><polygon class="cls-28" points="225 170.63 200 185 175 170.63 175 141.88 200 127.5 225 141.88 225 170.63"/><polygon class="cls-29" points="250 128.13 225 142.5 200 128.13 200 99.38 225 85 250 99.38 250 128.13"/><polygon class="cls-30" points="300 128.13 275 142.5 250 128.13 250 99.38 275 85 300 99.38 300 128.13"/><polygon class="cls-31" points="350 128.13 325 142.5 300 128.13 300 99.38 325 85 350 99.38 350 128.13"/><polygon class="cls-32" points="400 128.13 375 142.5 350 128.13 350 99.38 375 85 400 99.38 400 128.13"/><polygon class="cls-33" points="275 170.63 250 185 225 170.63 225 141.88 250 127.5 275 141.88 275 170.63"/><polygon class="cls-34" points="325 170.63 300 185 275 170.63 275 141.88 300 127.5 325 141.88 325 170.63"/><polygon class="cls-35" points="375 170.63 350 185 325 170.63 325 141.88 350 127.5 375 141.88 375 170.63"/><polygon class="cls-36" points="425 170.63 400 185 375 170.63 375 141.88 400 127.5 425 141.88 425 170.63"/><polygon class="cls-37" points="450 128.13 425 142.5 400 128.13 400 99.38 425 85 450 99.38 450 128.13"/><polygon class="cls-38" points="500 128.13 475 142.5 450 128.13 450 99.38 475 85 500 99.38 500 128.13"/><polygon class="cls-39" points="475 170.63 450 185 425 170.63 425 141.88 450 127.5 475 141.88 475 170.63"/><polygon class="cls-40" points="525 170.63 500 185 475 170.63 475 141.88 500 127.5 525 141.88 525 170.63"/><polygon class="cls-41" points="50 213.13 25 227.5 0 213.13 0 184.38 25 170 50 184.38 50 213.13"/><polygon class="cls-42" points="100 213.13 75 227.5 50 213.13 50 184.38 75 170 100 184.38 100 213.13"/><polygon class="cls-43" points="150 213.13 125 227.5 100 213.13 100 184.38 125 170 150 184.38 150 213.13"/><polygon class="cls-44" points="200 213.13 175 227.5 150 213.13 150 184.38 175 170 200 184.38 200 213.13"/><polygon class="cls-45" points="75 255.63 50 270 25 255.63 25 226.88 50 212.5 75 226.88 75 255.63"/><polygon class="cls-46" points="125 255.63 100 270 75 255.63 75 226.88 100 212.5 125 226.88 125 255.63"/><polygon class="cls-47" points="175 255.63 150 270 125 255.63 125 226.88 150 212.5 175 226.88 175 255.63"/><polygon class="cls-48" points="225 255.63 200 270 175 255.63 175 226.88 200 212.5 225 226.88 225 255.63"/><polygon class="cls-49" points="250 213.13 225 227.5 200 213.13 200 184.38 225 170 250 184.38 250 213.13"/><polygon class="cls-50" points="300 213.13 275 227.5 250 213.13 250 184.38 275 170 300 184.38 300 213.13"/><polygon class="cls-51" points="350 213.13 325 227.5 300 213.13 300 184.38 325 170 350 184.38 350 213.13"/><polygon class="cls-52" points="400 213.13 375 227.5 350 213.13 350 184.38 375 170 400 184.38 400 213.13"/><polygon class="cls-53" points="275 255.63 250 270 225 255.63 225 226.88 250 212.5 275 226.88 275 255.63"/><polygon class="cls-54" points="325 255.63 300 270 275 255.63 275 226.88 300 212.5 325 226.88 325 255.63"/><polygon class="cls-55" points="375 255.63 350 270 325 255.63 325 226.88 350 212.5 375 226.88 375 255.63"/><polygon class="cls-56" points="425 255.63 400 270 375 255.63 375 226.88 400 212.5 425 226.88 425 255.63"/><polygon class="cls-57" points="450 213.13 425 227.5 400 213.13 400 184.38 425 170 450 184.38 450 213.13"/><polygon class="cls-58" points="500 213.13 475 227.5 450 213.13 450 184.38 475 170 500 184.38 500 213.13"/><polygon class="cls-59" points="475 255.63 450 270 425 255.63 425 226.88 450 212.5 475 226.88 475 255.63"/><polygon class="cls-60" points="525 255.63 500 270 475 255.63 475 226.88 500 212.5 525 226.88 525 255.63"/><polygon class="cls-61" points="50 298.13 25 312.5 0 298.13 0 269.38 25 255 50 269.38 50 298.13"/><polygon class="cls-62" points="100 298.13 75 312.5 50 298.13 50 269.38 75 255 100 269.38 100 298.13"/><polygon class="cls-63" points="150 298.13 125 312.5 100 298.13 100 269.38 125 255 150 269.38 150 298.13"/><polygon class="cls-64" points="200 298.13 175 312.5 150 298.13 150 269.38 175 255 200 269.38 200 298.13"/><polygon class="cls-65" points="75 340.63 50 355 25 340.63 25 311.88 50 297.5 75 311.88 75 340.63"/><polygon class="cls-66" points="125 340.63 100 355 75 340.63 75 311.88 100 297.5 125 311.88 125 340.63"/><polygon class="cls-67" points="175 340.63 150 355 125 340.63 125 311.88 150 297.5 175 311.88 175 340.63"/><polygon class="cls-68" points="225 340.63 200 355 175 340.63 175 311.88 200 297.5 225 311.88 225 340.63"/><polygon class="cls-69" points="250 298.13 225 312.5 200 298.13 200 269.38 225 255 250 269.38 250 298.13"/><polygon class="cls-70" points="300 298.13 275 312.5 250 298.13 250 269.38 275 255 300 269.38 300 298.13"/><polygon class="cls-71" points="350 298.13 325 312.5 300 298.13 300 269.38 325 255 350 269.38 350 298.13"/><polygon class="cls-72" points="400 298.13 375 312.5 350 298.13 350 269.38 375 255 400 269.38 400 298.13"/><polygon class="cls-73" points="275 340.63 250 355 225 340.63 225 311.88 250 297.5 275 311.88 275 340.63"/><polygon class="cls-74" points="325 340.63 300 355 275 340.63 275 311.88 300 297.5 325 311.88 325 340.63"/><polygon class="cls-75" points="375 340.63 350 355 325 340.63 325 311.88 350 297.5 375 311.88 375 340.63"/><polygon class="cls-76" points="425 340.63 400 355 375 340.63 375 311.88 400 297.5 425 311.88 425 340.63"/><polygon class="cls-77" points="450 298.13 425 312.5 400 298.13 400 269.38 425 255 450 269.38 450 298.13"/><polygon class="cls-78" points="500 298.13 475 312.5 450 298.13 450 269.38 475 255 500 269.38 500 298.13"/><polygon class="cls-79" points="475 340.63 450 355 425 340.63 425 311.88 450 297.5 475 311.88 475 340.63"/><polygon class="cls-80" points="525 340.63 500 355 475 340.63 475 311.88 500 297.5 525 311.88 525 340.63"/><polygon class="cls-81" points="50 383.13 25 397.5 0 383.13 0 354.38 25 340 50 354.38 50 383.13"/><polygon class="cls-82" points="100 383.13 75 397.5 50 383.13 50 354.38 75 340 100 354.38 100 383.13"/><polygon class="cls-83" points="150 383.13 125 397.5 100 383.13 100 354.38 125 340 150 354.38 150 383.13"/><polygon class="cls-84" points="200 383.13 175 397.5 150 383.13 150 354.38 175 340 200 354.38 200 383.13"/><polygon class="cls-85" points="75 425.63 50 440 25 425.63 25 396.88 50 382.5 75 396.88 75 425.63"/><polygon class="cls-86" points="125 425.63 100 440 75 425.63 75 396.88 100 382.5 125 396.88 125 425.63"/><polygon class="cls-87" points="175 425.63 150 440 125 425.63 125 396.88 150 382.5 175 396.88 175 425.63"/><polygon class="cls-88" points="225 425.63 200 440 175 425.63 175 396.88 200 382.5 225 396.88 225 425.63"/><polygon class="cls-89" points="250 383.13 225 397.5 200 383.13 200 354.38 225 340 250 354.38 250 383.13"/><polygon class="cls-90" points="300 383.13 275 397.5 250 383.13 250 354.38 275 340 300 354.38 300 383.13"/><polygon class="cls-91" points="350 383.13 325 397.5 300 383.13 300 354.38 325 340 350 354.38 350 383.13"/><polygon class="cls-92" points="400 383.13 375 397.5 350 383.13 350 354.38 375 340 400 354.38 400 383.13"/><polygon class="cls-93" points="275 425.63 250 440 225 425.63 225 396.88 250 382.5 275 396.88 275 425.63"/><polygon class="cls-94" points="325 425.63 300 440 275 425.63 275 396.88 300 382.5 325 396.88 325 425.63"/><polygon class="cls-95" points="375 425.63 350 440 325 425.63 325 396.88 350 382.5 375 396.88 375 425.63"/><polygon class="cls-96" points="425 425.63 400 440 375 425.63 375 396.88 400 382.5 425 396.88 425 425.63"/><polygon class="cls-97" points="450 383.13 425 397.5 400 383.13 400 354.38 425 340 450 354.38 450 383.13"/><polygon class="cls-98" points="500 383.13 475 397.5 450 383.13 450 354.38 475 340 500 354.38 500 383.13"/><polygon class="cls-99" points="475 425.63 450 440 425 425.63 425 396.88 450 382.5 475 396.88 475 425.63"/><polygon class="cls-100" points="525 425.63 500 440 475 425.63 475 396.88 500 382.5 525 396.88 525 425.63"/><polygon class="cls-101" points="50 468.13 25 482.5 0 468.13 0 439.38 25 425 50 439.38 50 468.13"/><polygon class="cls-102" points="100 468.13 75 482.5 50 468.13 50 439.38 75 425 100 439.38 100 468.13"/><polygon class="cls-103" points="150 468.13 125 482.5 100 468.13 100 439.38 125 425 150 439.38 150 468.13"/><polygon class="cls-104" points="200 468.13 175 482.5 150 468.13 150 439.38 175 425 200 439.38 200 468.13"/><polygon class="cls-105" points="250 468.13 225 482.5 200 468.13 200 439.38 225 425 250 439.38 250 468.13"/><polygon class="cls-106" points="300 468.13 275 482.5 250 468.13 250 439.38 275 425 300 439.38 300 468.13"/><polygon class="cls-107" points="350 468.13 325 482.5 300 468.13 300 439.38 325 425 350 439.38 350 468.13"/><polygon class="cls-108" points="400 468.13 375 482.5 350 468.13 350 439.38 375 425 400 439.38 400 468.13"/><polygon class="cls-109" points="450 468.13 425 482.5 400 468.13 400 439.38 425 425 450 439.38 450 468.13"/><polygon class="cls-110" points="500 468.13 475 482.5 450 468.13 450 439.38 475 425 500 439.38 500 468.13"/></svg>